<svg width="10" height="10" viewBox="0 0 10 10" fill="none" xmlns="http://www.w3.org/2000/svg">
<path d="M9.66938 0.282501C9.37688 -0.00999893 8.90438 -0.00999893 8.61188 0.282501L4.94438 3.9425L1.27688 0.275001C0.984375 -0.0174991 0.511875 -0.0174991 0.219375 0.275001C-0.073125 0.567501 -0.073125 1.04 0.219375 1.3325L3.88688 5L0.219375 8.6675C-0.073125 8.96 -0.073125 9.4325 0.219375 9.725C0.511875 10.0175 0.984375 10.0175 1.27688 9.725L4.94438 6.0575L8.61188 9.725C8.90438 10.0175 9.37688 10.0175 9.66938 9.725C9.96188 9.4325 9.96188 8.96 9.66938 8.6675L6.00188 5L9.66938 1.3325C9.95438 1.0475 9.95438 0.567501 9.66938 0.282501Z" fill="#D4D4D4"/>
</svg>
